/* XPM */
static const char *app_xpm[] = {
/* columns rows colors chars-per-pixel */
"48 48 13 1 ",
"  c black",
". c #800000",
"X c #008000",
"o c #808000",
"O c navy",
"+ c blue",
"@ c #800080",
"# c #008080",
"$ c cyan",
"% c #808080",
"& c #C0C0C0",
"* c white",
"= c None",
/* pixels */
"================================================",
"================================================",
"================================================",
"================================================",
"================================================",
"================================================",
"================================================",
"================================================",
"================================================",
"================================================",
"===================&$%&#&+%&&&==================",
"===============&&$%+&#+%#$%#%+%$&===============",
"=============&#+%+#%+%$%+&+$%#&#%#&=============",
"============&#%$%%%$%%+%#%#%+%+%+&#+&===========",
"==========&#+%+%+$+#+$%+&+&+$%#$%+%%#&==========",
"=========+&#%%$#%%%%%%%$%$%%%%+&#%%$+%+=========",
"========$%%+$+%&&$%%%$%%%%%%$%%%+$+#%$#&========",
"=======%%#+%#&&*&&%$%%%%O%#%%%$%%&&&+%+%+=======",
"======+%+$#&&***&%$@&#% #. %&*&&$@&*&#%$%#======",
"=====%$%#%&&****&+&$%% #.OX****&%$&&*&%+%+&=====",
"====%#%+%&*****&$%%%&O@X.#.****&%%%****#%%$=====",
"===&#%#$&******&&%%$%OX.#  ****&$%$&***&$+%+====",
"===%#+&&********%$%%%#.OoOo@&&&&%%%&****&#&#&===",
"==%+$%&********&&+&%$@OoO % oO&$%$&&*****&#+%===",
"==%%%***********&%$%&#%O o O%#&+&+&*******&#$%==",
"=&+$&***********&#&+&%%#%O%O%%%&#&&********&%+&=",
"=&#%&&***********&%%$+&%+&#&$%&+&%**********#$==",
"==&#%+&&&********&$%%&%$%%%+&%$%$&********&+%&==",
"====%#%%&&&*******&%%$+&%$%&$%+&&*******&&##&===",
"======##+&$%*******&$%%&+&%+&#&&*******&#%+&====",
"=======&%#+&#$&&*****&%$%&$%%&*****&&&#+%#&=====",
"=========&%#%+&+%&&&&**&&&&****&*&&$%+&#&=======",
"============%##%$+&%%%$&&$&&$&%%$+%+#%#=========",
"==============&%%##+$%+%+%+%+%$+#%#&&===========",
"==================&%%#%#%#%#%#%&%===============",
"================================================",
"================================================",
"================================================",
"================================================",
"================================================",
"================================================",
"================================================",
"================================================",
"================================================",
"================================================",
"================================================",
"================================================",
"================================================"
};
