/* XPM */
static const char *list_xpm[] = {
/* columns rows colors chars-per-pixel */
"144 16 235 2 ",
"   c #319031",
".  c #319331",
"X  c #319731",
"o  c #319C31",
"O  c #31A131",
"+  c #32A732",
"@  c #32AC32",
"#  c #32AD32",
"$  c #32B232",
"%  c #33B833",
"&  c #33BD33",
"*  c #33BE33",
"=  c #33C333",
"-  c #34C834",
";  c #34CC34",
":  c #34CF34",
">  c #3BA579",
",  c #3BA67A",
"<  c #3CA57A",
"1  c #3CA67B",
"2  c #3DA77C",
"3  c #42A87F",
"4  c #43A87F",
"5  c #42A97F",
"6  c #3E78B3",
"7  c #3E78B4",
"8  c #3E79B4",
"9  c #3E79B5",
"0  c #3F7AB6",
"q  c #2E47C0",
"w  c #2F47C0",
"e  c #2F47C2",
"r  c #2F48C1",
"t  c #2F48C2",
"y  c #2F48C3",
"u  c #2F4BC4",
"i  c #2E4FC6",
"p  c #3149C3",
"a  c #334BC3",
"s  c #304AC5",
"d  c #324AC4",
"f  c #304AC6",
"g  c #344CC4",
"h  c #324BCB",
"j  c #324CCC",
"k  c #3E55CA",
"l  c #3F57CE",
"z  c #344ED4",
"x  c #344FD5",
"c  c #2D5DD1",
"v  c #2D5DD2",
"b  c #2F5DD7",
"n  c #2F5ED9",
"m  c #3453D7",
"M  c #3550D8",
"N  c #3550D9",
"B  c #3651D9",
"V  c #3454D9",
"C  c #325DDE",
"Z  c #325FDF",
"A  c #2C69DA",
"S  c #2C6ADB",
"D  c #3756E4",
"F  c #3758E6",
"G  c #3957EC",
"H  c #3A58ED",
"J  c #3A59EF",
"K  c #3A59F0",
"L  c #3566EF",
"P  c #2D7AEE",
"I  c #2D7CEE",
"U  c #3469F0",
"Y  c #3965F8",
"T  c #3967F9",
"R  c #3F62FC",
"E  c #3F63FD",
"W  c #2F7AF3",
"Q  c #3077F2",
"!  c #3F75FE",
"~  c #3E77FE",
"^  c #337BFC",
"/  c #3478FC",
"(  c #4057CB",
")  c #4158CB",
"_  c #4159CF",
"`  c #445ACC",
"'  c #445DD7",
"]  c #465ED8",
"[  c #556AD2",
"{  c #576CD3",
"}  c #5A6FDD",
"|  c #5B71DF",
" . c #4E69EE",
".. c #5A72E8",
"X. c #5B72E9",
"o. c #4261FE",
"O. c #4362FE",
"+. c #4F6CFF",
"@. c #4E6DFF",
"#. c #4E6EFF",
"$. c #516DFC",
"%. c #516EFD",
"&. c #4871FF",
"*. c #4873FF",
"=. c #4C7BFF",
"-. c #4B7DFF",
";. c #5572FF",
":. c #5673FF",
">. c #5375FF",
",. c #5276FF",
"<. c #5974FF",
"1. c #5A75FF",
"2. c #5B76FF",
"3. c #5C77FF",
"4. c #5179FF",
"5. c #5278FF",
"6. c #507AFF",
"7. c #6B7FE4",
"8. c #697FF0",
"9. c #657DF8",
"0. c #657EF9",
"q. c #43A980",
"w. c #45AA81",
"e. c #46AB81",
"r. c #46AB82",
"t. c #47AB82",
"y. c #4AAB83",
"u. c #48AC83",
"i. c #4AAC84",
"p. c #4AAD84",
"a. c #4AAD85",
"s. c #4BAD85",
"d. c #5FB693",
"f. c #64B895",
"g. c #75BFA2",
"h. c #7CC2A7",
"j. c #2C8BFB",
"k. c #2B8EFC",
"l. c #3687FE",
"z. c #348AFE",
"x. c #3F8DFF",
"c. c #2794F7",
"v. c #2891F7",
"b. c #249FFB",
"n. c #279FFE",
"m. c #2998FE",
"M. c #289AFE",
"N. c #3591FF",
"B. c #3493FF",
"V. c #3396FF",
"C. c #3397FF",
"Z. c #24A0FB",
"A. c #27A0FE",
"S. c #4382C1",
"D. c #4382C2",
"F. c #4484C5",
"G. c #4282FF",
"H. c #4184FF",
"J. c #4A80FF",
"K. c #4A81FF",
"L. c #4983FF",
"P. c #4189FF",
"I. c #408AFF",
"U. c #6C80E4",
"Y. c #7184E2",
"T. c #7386E3",
"R. c #7587E0",
"E. c #7788E1",
"W. c #6980F0",
"Q. c #768BF1",
"!. c #778BF1",
"~. c #738AFB",
"^. c #748AFB",
"/. c #7289FE",
"(. c #738AFE",
"). c #7F93F9",
"_. c #7F94F9",
"`. c #7E93FF",
"'. c #7F94FE",
"]. c #7F94FF",
"[. c #84C7AC",
"{. c #8AC8B2",
"}. c #96CEB7",
"|. c #C3C0BB",
" X c #C4C0BC",
".X c #C4C1BD",
"XX c #C5C3BF",
"oX c #8193ED",
"OX c #8294EE",
"+X c #8999E8",
"@X c #8A9AE8",
"#X c #889AF3",
"$X c #899AF3",
"%X c #8C9EF5",
"&X c #8C9EF6",
"*X c #869AFD",
"=X c #8499FF",
"-X c #879AFF",
";X c #879BFF",
":X c #8A9DFE",
">X c #8B9EFF",
",X c #AAD8C6",
"<X c #C6C3C0",
"1X c #C7C5C2",
"2X c #C8C6C3",
"3X c #CAC8C6",
"4X c #CBC9C7",
"5X c #CCCAC9",
"6X c #CCCBCA",
"7X c #CDCCCA",
"8X c #CDCCCB",
"9X c #CECDCD",
"0X c #CFCDCD",
"qX c #CFCFCE",
"wX c #D0CFCF",
"eX c gray82",
"rX c #C9E7DA",
"tX c #CCE6DE",
"yX c #CDE9DD",
"uX c #DAEDE9",
"iX c #E9F3F4",
"pX c #EEF6F5",
"aX c #F6FAFA",
"sX c #F8FAFF",
"dX c #F9FBFF",
"fX c #FAFBFF",
"gX c #FAFCFF",
"hX c #FBFCFF",
"jX c #FCFCFF",
"kX c #FCFDFF",
"lX c #FDFDFF",
"zX c #FEFDFF",
"xX c #FFFEFF",
"cX c white",
"vX c None",
/* pixels */
"vXvXvXvXvXvXvXvXvXvXvXvXvXvXvXvXvXvXvXvXvXvXvX6 vXvXvXvXvXvXvXvXvXvXvXvXvXvXvXvXvXvXvXvXvXvXvXvXvXvXvXvXvXs.s.s.s.s.s.vXvXvXvXvXvXvXvXvXvXs.s.s.s.s.s.vXvXvXvXvXvXvXvXvXvXvXvXvXvXvXvXvXvXvXvXvXvXvXvXvXvXvXw w w w vXvXvXvXvXvXvXvXvXvXvXvXvXvXvXvXvXvXvXvXvXvXvXvXvXvXvXvXeXeXeXeXvXvXvXvXvXvX",
"vX6 vXvXvXvXvXvXvXvXvXvXvXvXvXvXvXvXvXvXF.vX8 6 8 vXF.vXvXvXvXvXvXvXvXvXvXvXvXvXvXvXvXvXvXvXvXvXvXvXvXs.s.s.s.s.s.s.s.s.s.vXvXvXvXvXvXs.s.s.s.s.s.s.s.s.s.vXvXvXvXvXvXvXg { R.+X@XT.[ g vXvXvXvXvXvXvXvXw vXvXvXvXvXvXw vXvXvXvXvXvXvXvXvX; : : : : : vXvXvXvXvXvXvXvXvX0XwXvXvXvXvXwXwXvXvXvXvX",
"vX6 6 6 6 vXvXvXvXvXvXvXvXvXvXvXvXvXvX6 6 vX8 6 8 vX6 6 vXvXvXvXvXvX6 6 6 6 6 6 6 6 6 6 6 6 vXvXvXvXs.s.s.i.s.s.s.s.s.i.s.s.vXvXvXvXs.s.s.s.i.i.s.s.s.s.s.s.vXvXvXvXvX` T.oX#X%X%XOXoXY.) vXvXvXvXvXq vXvXvXvXvXvXvXvXvXvXw vXvXvXvXvXvX; ; ; ; ; ; ; ; vXvXvXvXvXvX7X7XvXvXvXvXvXvXvXvX0X7XvXvX",
"vX6 6 6 6 6 6 vXvXvXvXvXvXvXvXvXvXvX6 6 6 vX8 6 8 vX6 6 6 vXvXvXvXvX6 6 6 6 6 6 6 6 6 6 6 6 vXvXvXs.s.s.i.y.5 i.s.s.s.i.s.s.s.vXvXs.s.s.s.i.i.i.s.s.s.s.s.s.s.vXvXvX( U.!.=X*X:X>X*X=X!.7.k vXvXvXvXvXvXvXvXvXvXvXvXvXvXvXvXvXvXvXvXvX- - - - - - - - - - vXvXvXvXvX4XvXvXvXvXvXvXvXvXvXvX3XvXvX",
"vX6 6 6 6 6 6 6 6 vXvXvXvXvXvXvXvX6 6 6 S.vX8 6 8 vXS.6 6 6 vXvXvXvX6 6 6 6 6 6 6 6 6 6 6 6 vXvXvXs.s.s.s.cX,X5 r.y.i.i.s.s.s.vXvXs.s.s.yXrXrXrXrXrXtXrXs.s.s.vXvXs | W.~.].;X>X:X-X`.~.8.} p vXvXw vXvXvXvXvXvXvXvXvXvXvXvXw vXvXvX= = = = = = = = = = = = vXvXvX2XvXvXvXvXvXvXvXvXvXvXvXvX1XvX",
"vX6 6 6 6 6 6 6 6 6 6 vXvXvXvXvXvX6 6 6 vXvX8 6 8 vXvX6 6 6 vXvXvXvX6 6 6 6 6 6 6 6 6 6 6 6 vXvXs.s.s.s.s.cXcXcX}.1 r.i.s.s.s.s.s.s.s.s.rXcXzXcXcXgXcXrXs.s.s.s.vX_ X.0.(.].=X;X*X*X`.(.0...l vXvXvXvXvXvXvXvXvXvXvXvXvXvXvXvXvXvX& & & = & & & = & & & = & & vXvX<XvXvXvXvXvXvXvXvXvXvXvXvX1XvX",
"vX6 6 6 6 6 6 6 6 6 6 6 6 vXvXvX6 6 6 vXvXvX8 6 8 vXvXvX6 6 6 vXvXvX6 6 6 6 6 6 6 6 6 6 6 6 vXvXs.s.s.s.i.cXcXcXcXaX[., u.i.s.s.s.s.s.s.rXgXcXgXgXcXcXrXs.s.s.s.vX]  .%.1.3.3.1.1.3.3.<.$. .] vXw vXvXvXvXvXvXvXvXvXvXvXvXvXvXw vX% % % % % % % % % % % % % % vX.XvXvXvXvXvXvXvXvXvXvXvXvXvXvX.X",
"vX6 6 6 6 6 6 6 6 6 6 6 6 6 6 vX6 6 6 vXvXvX8 6 8 vXvXvX8 6 6 vXvXvX6 6 6 6 6 6 6 6 6 6 6 6 vXvXs.s.s.s.s.cXzXsXsXgXcXpXh.u.s.s.s.s.s.s.rXcXgXcXcXsXcXrXs.s.s.s.s M H o.@.;.:.:.;.;.;.%.o.G M vXw vXvXvXvXvXvXvXvXvXvXvXvXvXvXw vX$ $ $ $ $ $ $ $ $ $ $ $ $ $ vX|.vXvXvXvXvXvXvXvXvXvXvXvXvXvX|.",
"vX6 6 6 6 6 6 6 6 6 6 6 6 6 6 vX6 6 8 vXvXvX8 6 8 vXvXvX8 6 6 vXvXvX6 6 6 6 6 6 6 6 6 6 6 6 vXvXs.s.s.s.i.cXgXgXgXcXcXtXd.u.i.s.s.s.s.s.rXgXgXgXsXgXgXrXs.s.s.s.r M K o.@.5.5.6.5.5.>.@.o.H M vXw vXvXvXvXvXvXvXvXvXvXvXvXvXvXw vX@ @ @ @ @ @ @ @ @ @ @ @ @ @ vX.XvXvXvXvXvXvXvXvXvXvXvXvXvXvX|.",
"vX6 6 6 6 6 6 6 6 6 6 6 6 vXvXvX6 6 6 vXvXvX8 8 8 vXvXvX8 8 6 vXvXvX6 6 6 6 6 6 6 6 6 6 6 6 vXvXs.s.s.s.i.gXcXsXcXuXf.2 i.s.i.s.s.s.s.s.rXsXgXsXsXsXgXrXs.s.s.s.vXm H E *.-.J.L.L.J.=.&.E H z vXw vXvXvXvXvXvXvXvXvXvXvXvXvXvXw vX+ + + + + + + + + + + + + + vX.XvXvXvXvXvXvXvXvXvXvXvXvXvXvX.X",
"vX6 6 6 6 6 6 6 6 6 6 vXvXvXvXvX6 6 6 vXvXvXvXvXvXvXvXvX6 6 6 vXvXvX6 6 6 6 6 6 6 6 6 6 6 6 vXvXs.s.s.s.s.cXcXiXg.1 r.i.s.s.s.s.s.s.s.s.rXsXsXsXsXsXsXrXs.s.s.s.vXh F T ~ H.I.x.x.I.G.! Y D h vXvXvXvXvXvXvXvXvXvXvXvXvXvXvXvXvXvX+ O O O O + O O O O O O O O vXvX.XvXvXvXvXvXvXvXvXvXvXvXvXXXvX",
"vX6 6 6 6 6 6 6 6 vXvXvXvXvXvXvXvX6 6 8 vXvXvXvXvXvXvX8 6 6 vXvXvXvX6 6 6 6 6 6 6 6 6 6 6 6 vXvXvXs.s.s.i.cX{.1 r.s.s.i.s.s.s.vXvXs.s.s.yXrXrXrXrXrXrXyXs.s.s.vXvXu m U ^ z.B.C.V.N.l./ L m p vXvXw vXvXvXvXvXvXvXvXvXvXvXvXw vXvXvXo o o o o o o o o o o o vXvXvX1XvXvXvXvXvXvXvXvXvXvXvXvX1XvX",
"vX6 6 6 6 6 6 vXvXvXvXvXvXvXvXvXvX6 6 6 6 vXvXvXvXvX6 6 6 6 vXvXvXvX6 6 6 6 6 6 6 6 6 6 6 6 vXvXvXs.s.s.i.q.r.i.i.s.s.s.s.s.s.vXvXs.s.s.s.s.s.s.s.s.s.s.s.s.s.vXvXvXs F W k.m.Z.n.m.j.Q C s vXvXvXvXvXvXvXvXvXvXvXvXvXvXvXvXvXvXvXvXvX. . . X X X X X X X vXvXvXvXvX3XvXvXvXvXvXvXvXvXvXvX3XvXvX",
"vX6 6 6 6 vXvXvXvXvXvXvXvXvXvXvXvXvX6 6 6 6 6 8 6 6 6 6 6 vXvXvXvXvX6 6 6 6 6 6 6 6 6 6 6 6 vXvXvXvXs.s.i.i.s.s.s.s.s.s.s.s.vXvXvXvXs.s.s.s.s.s.s.s.s.s.s.s.vXvXvXvXvXu A W c.Z.b.v.P b s vXvXvXvXvXw vXvXvXvXvXvXvXvXvXvXw vXvXvXvXvXvX. . . . . . . . vXvXvXvXvXvX5X7XvXvXvXvXvXvXvXvX6X7XvXvX",
"vX6 vXvXvXvXvXvXvXvXvXvXvXvXvXvXvXvXvX6 6 6 6 6 6 6 6 6 vXvXvXvXvXvXvXvXvXvXvXvXvXvXvXvXvXvXvXvXvXvXvXs.s.s.s.s.s.s.s.s.s.vXvXvXvXvXvXs.s.s.s.s.s.s.s.s.s.vXvXvXvXvXvXvXw s c S A c i r vXvXvXvXvXvXvXvXw vXvXvXvXvXvXw vXvXvXvXvXvXvXvXvX.   . .   . vXvXvXvXvXvXvXvXvX0X0XvXvXvXvX0X0XvXvXvXvX",
"vXvXvXvXvXvXvXvXvXvXvXvXvXvXvXvXvXvXvXvXvX6 6 6 6 6 vXvXvXvXvXvXvXvXvXvXvXvXvXvXvXvXvXvXvXvXvXvXvXvXvXvXvXs.s.s.s.s.s.vXvXvXvXvXvXvXvXvXvXs.s.s.s.s.s.vXvXvXvXvXvXvXvXvXvXvXvXq q vXvXvXvXvXvXvXvXvXvXvXvXvXw w w w vXvXvXvXvXvXvXvXvXvXvXvXvXvXvXvXvXvXvXvXvXvXvXvXvXvXvXvXwXwXwXwXvXvXvXvXvXvX"
};
